<?xml version="1.0" encoding="UTF-8"?>
<!DOCTYPE svg PUBLIC "-//W3C//DTD SVG 1.1//EN" "http://www.w3.org/Graphics/SVG/1.1/DTD/svg11.dtd">
<!-- Creator: CorelDRAW X7 -->
<svg xmlns="http://www.w3.org/2000/svg" xml:space="preserve" width="1336px" height="763px" version="1.1" style="shape-rendering:geometricPrecision; text-rendering:geometricPrecision; image-rendering:optimizeQuality; fill-rule:evenodd; clip-rule:evenodd"
viewBox="0 0 1336 763"
 xmlns:xlink="http://www.w3.org/1999/xlink">
 <defs>
  <style type="text/css">
   <![CDATA[
    .fil0 {fill:#FEFEFE}
    .fil1 {fill:#FEFEFE}
   ]]>
  </style>
 </defs>
 <g id="Camada_x0020_1">
  <metadata id="CorelCorpID_0Corel-Layer"/>
  <path class="fil0" d="M2152 400l214 0 0 -239 -87 -1c-1,-6 -4,-89 1,-99l86 0c4,-67 -18,-168 81,-202 10,-3 24,-4 33,-7l-328 0 0 548z"/>
  <path class="fil0" d="M2849 541l227 0 0 -549 -187 0c24,8 56,-5 59,15l0 75c-34,6 -72,-5 -89,20 -14,21 -11,70 -10,99l95 1 -15 98 -79 0 -1 241z"/>
  <path class="fil1" d="M535 303l0 90 61 0c2,0 8,-1 11,-1 11,2 3,1 7,3l-1 219 98 0 1 -220 73 0 13 -90 -86 -1c-2,-26 -4,-71 8,-90 16,-23 51,-13 82,-19l0 -68c-3,-18 -32,-7 -54,-14l-30 0c-8,4 -21,4 -31,7 -90,31 -70,124 -74,185l-78 -1z"/>
 </g>
</svg>
