<svg width="137" height="26" viewBox="0 0 137 26" fill="none" xmlns="http://www.w3.org/2000/svg">
<path d="M12.7079 25.42C8.92793 25.42 6.01126 24.4167 3.95793 22.41C1.92793 20.38 0.91293 17.2417 0.91293 12.995C0.91293 10.1717 1.40293 7.85 2.38293 6.03C3.36293 4.18666 4.78626 2.82167 6.65293 1.935C8.5196 1.025 10.7596 0.57 13.3729 0.57C14.9363 0.57 16.4063 0.744999 17.7829 1.095C19.1596 1.445 20.3729 1.98167 21.4229 2.705C22.4963 3.42833 23.3246 4.33833 23.9079 5.435C24.5146 6.50833 24.8179 7.79167 24.8179 9.285H19.5329C19.5329 8.56167 19.3696 7.92 19.0429 7.36C18.7396 6.8 18.3079 6.33333 17.7479 5.96C17.1879 5.58667 16.5463 5.30667 15.8229 5.12C15.0996 4.93333 14.3413 4.84 13.5479 4.84C12.3346 4.84 11.2729 5.00333 10.3629 5.33C9.45293 5.63333 8.6946 6.11167 8.08793 6.765C7.5046 7.395 7.06126 8.18833 6.75793 9.145C6.4546 10.1017 6.30293 11.21 6.30293 12.47V13.52C6.30293 15.27 6.5596 16.705 7.07293 17.825C7.58626 18.945 8.35626 19.785 9.38293 20.345C10.4096 20.8817 11.6813 21.15 13.1979 21.15C14.4579 21.15 15.5663 20.9633 16.5229 20.59C17.5029 20.1933 18.2613 19.6333 18.7979 18.91C19.3579 18.1867 19.6379 17.3 19.6379 16.25V16.005H12.4629V12.015H24.8179V25H21.3879L20.9329 22.41C20.2329 23.0867 19.4746 23.6467 18.6579 24.09C17.8646 24.5333 16.9779 24.86 15.9979 25.07C15.0179 25.3033 13.9213 25.42 12.7079 25.42ZM36.8145 25V15.34L27.5045 0.989998H33.5595L39.5095 10.65H39.6845L45.5995 0.989998H51.3045L42.0645 15.34V25H36.8145ZM54.3221 25V0.989998H62.2671L65.6971 13.275C65.8371 13.7183 65.9771 14.2433 66.1171 14.85C66.2571 15.4567 66.3971 16.0633 66.5371 16.67C66.7004 17.2533 66.8288 17.7783 66.9221 18.245H67.2021C67.2488 17.8483 67.3304 17.3817 67.4471 16.845C67.5638 16.285 67.6921 15.69 67.8321 15.06C67.9721 14.43 68.1238 13.8233 68.2871 13.24L71.7171 0.989998H79.5221V25H74.3771V13.625C74.3771 12.575 74.3771 11.525 74.3771 10.475C74.4004 9.40167 74.4238 8.46833 74.4471 7.675C74.4938 6.88167 74.5171 6.36833 74.5171 6.135H74.2371C74.1904 6.39167 74.0738 6.87 73.8871 7.57C73.7238 8.24667 73.5371 8.97 73.3271 9.74C73.1404 10.51 72.9654 11.175 72.8021 11.735L69.0571 25H64.5071L60.7271 11.77C60.5871 11.28 60.4238 10.7083 60.2371 10.055C60.0738 9.37833 59.9104 8.69 59.7471 7.99C59.6071 7.26667 59.4671 6.64833 59.3271 6.135H59.0471C59.0704 6.765 59.0938 7.52333 59.1171 8.41C59.1404 9.27333 59.1638 10.1717 59.1871 11.105C59.2104 12.015 59.2221 12.855 59.2221 13.625V25H54.3221ZM95.7646 25.42C91.9846 25.42 89.0679 24.4167 87.0146 22.41C84.9846 20.38 83.9696 17.2417 83.9696 12.995C83.9696 10.1717 84.4596 7.85 85.4396 6.03C86.4196 4.18666 87.8429 2.82167 89.7096 1.935C91.5762 1.025 93.8162 0.57 96.4296 0.57C97.9929 0.57 99.4629 0.744999 100.84 1.095C102.216 1.445 103.43 1.98167 104.48 2.705C105.553 3.42833 106.381 4.33833 106.965 5.435C107.571 6.50833 107.875 7.79167 107.875 9.285H102.59C102.59 8.56167 102.426 7.92 102.1 7.36C101.796 6.8 101.365 6.33333 100.805 5.96C100.245 5.58667 99.6029 5.30667 98.8796 5.12C98.1562 4.93333 97.3979 4.84 96.6046 4.84C95.3912 4.84 94.3296 5.00333 93.4196 5.33C92.5096 5.63333 91.7512 6.11167 91.1446 6.765C90.5612 7.395 90.1179 8.18833 89.8146 9.145C89.5112 10.1017 89.3596 11.21 89.3596 12.47V13.52C89.3596 15.27 89.6162 16.705 90.1296 17.825C90.6429 18.945 91.4129 19.785 92.4396 20.345C93.4662 20.8817 94.7379 21.15 96.2546 21.15C97.5146 21.15 98.6229 20.9633 99.5796 20.59C100.56 20.1933 101.318 19.6333 101.855 18.91C102.415 18.1867 102.695 17.3 102.695 16.25V16.005H95.5196V12.015H107.875V25H104.445L103.99 22.41C103.29 23.0867 102.531 23.6467 101.715 24.09C100.921 24.5333 100.035 24.86 99.0546 25.07C98.0746 25.3033 96.9779 25.42 95.7646 25.42ZM124.106 25.42C121.563 25.42 119.369 24.965 117.526 24.055C115.683 23.145 114.271 21.7683 113.291 19.925C112.311 18.0817 111.821 15.7717 111.821 12.995C111.821 10.1717 112.311 7.85 113.291 6.03C114.271 4.18666 115.683 2.82167 117.526 1.935C119.369 1.025 121.563 0.57 124.106 0.57C126.696 0.57 128.901 1.025 130.721 1.935C132.564 2.82167 133.976 4.18666 134.956 6.03C135.936 7.85 136.426 10.1717 136.426 12.995C136.426 15.7717 135.936 18.0817 134.956 19.925C133.976 21.7683 132.564 23.145 130.721 24.055C128.901 24.965 126.696 25.42 124.106 25.42ZM124.106 21.15C125.249 21.15 126.253 20.9867 127.116 20.66C127.979 20.3333 128.703 19.8433 129.286 19.19C129.869 18.5367 130.313 17.7433 130.616 16.81C130.919 15.8533 131.071 14.7683 131.071 13.555V12.47C131.071 11.2333 130.919 10.1367 130.616 9.18C130.313 8.22333 129.869 7.43 129.286 6.8C128.703 6.14667 127.979 5.65667 127.116 5.33C126.253 5.00333 125.249 4.84 124.106 4.84C122.986 4.84 121.994 5.00333 121.131 5.33C120.268 5.65667 119.544 6.14667 118.961 6.8C118.378 7.43 117.934 8.22333 117.631 9.18C117.351 10.1367 117.211 11.2333 117.211 12.47V13.555C117.211 14.7683 117.351 15.8533 117.631 16.81C117.934 17.7433 118.378 18.5367 118.961 19.19C119.544 19.8433 120.268 20.3333 121.131 20.66C121.994 20.9867 122.986 21.15 124.106 21.15Z" fill="#F51A2D"/>
</svg>
