<svg width="108" height="47" viewBox="0 0 108 47" fill="none" xmlns="http://www.w3.org/2000/svg">
<rect width="108" height="47" fill="#363636"/>
<g clip-path="url(#clip0_0_1)">
<path d="M-989 -3677H451V3144H-989V-3677Z" fill="white"/>
<g clip-path="url(#clip1_0_1)">
<rect width="1440" height="1024" transform="translate(-989 -343)" fill="#131212"/>
<path d="M-864 -122C-864 -144.091 -846.091 -162 -824 -162H286C308.091 -162 326 -144.091 326 -122V535C326 557.091 308.091 575 286 575H-824C-846.091 575 -864 557.091 -864 535V-122Z" fill="white"/>
<path d="M-864 -122C-864 -144.091 -846.091 -162 -824 -162H286C308.091 -162 326 -144.091 326 -122V535C326 557.091 308.091 575 286 575H-824C-846.091 575 -864 557.091 -864 535V-122Z" fill="white"/>
<g filter="url(#filter0_d_0_1)">
<rect x="-98" y="-20" width="304" height="512" rx="25" fill="white"/>
</g>
<path fill-rule="evenodd" clip-rule="evenodd" d="M7.03846 2.60778C7.22543 1.67293 8.04626 1 8.99962 1H20.9996C21.7173 1 22.38 1.38457 22.7361 2.00772L26.7361 9.00772C27.2451 9.89845 26.9976 11.0299 26.1632 11.6267L18.7311 16.9428L21.8706 28.5575C24.6354 25.7651 28.6081 24.1712 32.9407 24.6312C39.4833 25.3254 44.6579 30.8197 44.9871 37.3798L44.9874 37.3849C45.0689 39.0979 44.836 40.7509 44.3305 42.2917C43.7818 43.9749 42.1887 45 40.5396 45H10.7576C4.44729 45 -0.285006 39.2261 0.95246 33.0388L2.91362 33.431L0.95246 33.0388L7.03846 2.60778ZM18.9327 33.0179L14.619 17.0592L12.4198 14.2265C11.7425 13.354 11.9006 12.0976 12.7731 11.4202C13.6456 10.7428 14.902 10.901 15.5794 11.7735L16.8301 13.3845L22.367 9.42409L19.839 5H10.6392L4.87479 33.8232L2.91531 33.4313L4.87479 33.8232C4.13225 37.5359 6.97196 41 10.7576 41H40.5396C40.5412 41 40.5428 40.9999 40.5445 40.9997C40.888 39.9347 41.0493 38.7848 40.992 37.5769C40.7596 32.9784 37.0948 29.0944 32.5186 28.6088L32.5185 28.6088C27.6871 28.0959 23.4964 31.1913 22.2974 35.5324C22.0034 36.5972 20.9019 37.2219 19.8372 36.9278C18.7725 36.6338 18.1477 35.5323 18.4418 34.4676C18.5786 33.9724 18.7428 33.4886 18.9327 33.0179Z" fill="#F51A2D"/>
<path fill-rule="evenodd" clip-rule="evenodd" d="M100.962 2.60778C100.775 1.67293 99.9537 1 99.0004 1H87.0004C86.2827 1 85.62 1.38457 85.2639 2.00772L81.2639 9.00772C80.7549 9.89845 81.0024 11.0299 81.8368 11.6267L89.2689 16.9428L86.1294 28.5575C83.3646 25.7651 79.3919 24.1712 75.0593 24.6312C68.5167 25.3254 63.3421 30.8197 63.0129 37.3798L63.0126 37.3849C62.9311 39.0979 63.164 40.7509 63.6695 42.2917C64.2182 43.9749 65.8113 45 67.4604 45H97.2424C103.553 45 108.285 39.2261 107.048 33.0388L105.086 33.431L107.048 33.0388L100.962 2.60778ZM89.0673 33.0179L93.381 17.0592L95.5802 14.2265C96.2575 13.354 96.0994 12.0976 95.2269 11.4202C94.3544 10.7428 93.098 10.901 92.4206 11.7735L91.1699 13.3845L85.633 9.42409L88.161 5H97.3608L103.125 33.8232L105.085 33.4313L103.125 33.8232C103.868 37.5359 101.028 41 97.2424 41H67.4604C67.4588 41 67.4572 40.9999 67.4555 40.9997C67.112 39.9347 66.9507 38.7848 67.008 37.5769C67.2404 32.9784 70.9052 29.0944 75.4814 28.6088L75.4815 28.6088C80.3129 28.0959 84.5036 31.1913 85.7026 35.5324C85.9966 36.5972 87.0981 37.2219 88.1628 36.9278C89.2275 36.6338 89.8523 35.5323 89.5582 34.4676C89.4214 33.9724 89.2572 33.4886 89.0673 33.0179Z" fill="#F51A2D"/>
</g>
</g>
<defs>
<filter id="filter0_d_0_1" x="-108" y="-26" width="324" height="532" filterUnits="userSpaceOnUse" color-interpolation-filters="sRGB">
<feFlood flood-opacity="0" result="BackgroundImageFix"/>
<feColorMatrix in="SourceAlpha" type="matrix" values="0 0 0 0 0 0 0 0 0 0 0 0 0 0 0 0 0 0 127 0" result="hardAlpha"/>
<feOffset dy="4"/>
<feGaussianBlur stdDeviation="5"/>
<feComposite in2="hardAlpha" operator="out"/>
<feColorMatrix type="matrix" values="0 0 0 0 0 0 0 0 0 0 0 0 0 0 0 0 0 0 0.25 0"/>
<feBlend mode="normal" in2="BackgroundImageFix" result="effect1_dropShadow_0_1"/>
<feBlend mode="normal" in="SourceGraphic" in2="effect1_dropShadow_0_1" result="shape"/>
</filter>
<clipPath id="clip0_0_1">
<path d="M-989 -3677H451V3144H-989V-3677Z" fill="white"/>
</clipPath>
<clipPath id="clip1_0_1">
<rect width="1440" height="1024" fill="white" transform="translate(-989 -343)"/>
</clipPath>
</defs>
</svg>
