<svg width="1980" height="1920" viewBox="0 0 1980 1920" fill="none" xmlns="http://www.w3.org/2000/svg">
<g clip-path="url(#clip0_157_52)">
<rect width="1980" height="1920" fill="white"/>
<path d="M1867.01 1700.59C1820.61 1762.19 1601.67 1871.92 1498.01 1919.09C1485.17 1931.92 1467.21 1961.39 1498.01 1976.59C1536.51 1995.59 1803.01 2034.59 1867.01 2034.59C1918.21 2034.59 2031.67 1914.59 2082.01 1854.59C2097.01 1790.42 2112.21 1656.89 2053.01 1636.09C1979.01 1610.09 1925.01 1623.59 1867.01 1700.59Z" fill="#F51A2D"/>
<path d="M188.521 153.363C102.71 198.303 -29.2503 242.325 -95.2602 226.831L-40.8661 207.841C-35.1698 194.514 -59.4628 144.868 -59.4628 102.886C-59.4628 50.408 -26.7929 30.4166 -23.7773 -3.56897C-20.7616 -37.5545 -120.279 -40.5534 -101.682 -53.0481C-83.0857 -65.5428 -115.756 -139.012 -88.6147 -147.508C-61.4736 -156.004 26.9868 -211.981 289.854 -92.5311C296.071 -89.706 310.796 -25.0601 318 0.928909C318 38.9126 263.913 113.88 188.521 153.363Z" fill="#F51A2D"/>
<path d="M270.925 862.275C270.925 860.575 271.317 859.05 272.1 857.7C272.9 856.35 273.975 855.3 275.325 854.55C276.692 853.783 278.183 853.4 279.8 853.4C281.65 853.4 283.292 853.858 284.725 854.775C286.175 855.675 287.225 856.958 287.875 858.625H284.45C284 857.708 283.375 857.025 282.575 856.575C281.775 856.125 280.85 855.9 279.8 855.9C278.65 855.9 277.625 856.158 276.725 856.675C275.825 857.192 275.117 857.933 274.6 858.9C274.1 859.867 273.85 860.992 273.85 862.275C273.85 863.558 274.1 864.683 274.6 865.65C275.117 866.617 275.825 867.367 276.725 867.9C277.625 868.417 278.65 868.675 279.8 868.675C280.85 868.675 281.775 868.45 282.575 868C283.375 867.55 284 866.867 284.45 865.95H287.875C287.225 867.617 286.175 868.9 284.725 869.8C283.292 870.7 281.65 871.15 279.8 871.15C278.167 871.15 276.675 870.775 275.325 870.025C273.975 869.258 272.9 868.2 272.1 866.85C271.317 865.5 270.925 863.975 270.925 862.275ZM289.011 864.05C289.011 862.667 289.294 861.442 289.861 860.375C290.444 859.308 291.228 858.483 292.211 857.9C293.211 857.3 294.311 857 295.511 857C296.594 857 297.536 857.217 298.336 857.65C299.153 858.067 299.803 858.592 300.286 859.225V857.225H303.161V871H300.286V868.95C299.803 869.6 299.144 870.142 298.311 870.575C297.478 871.008 296.528 871.225 295.461 871.225C294.278 871.225 293.194 870.925 292.211 870.325C291.228 869.708 290.444 868.858 289.861 867.775C289.294 866.675 289.011 865.433 289.011 864.05ZM300.286 864.1C300.286 863.15 300.086 862.325 299.686 861.625C299.303 860.925 298.794 860.392 298.161 860.025C297.528 859.658 296.844 859.475 296.111 859.475C295.378 859.475 294.694 859.658 294.061 860.025C293.428 860.375 292.911 860.9 292.511 861.6C292.128 862.283 291.936 863.1 291.936 864.05C291.936 865 292.128 865.833 292.511 866.55C292.911 867.267 293.428 867.817 294.061 868.2C294.711 868.567 295.394 868.75 296.111 868.75C296.844 868.75 297.528 868.567 298.161 868.2C298.794 867.833 299.303 867.3 299.686 866.6C300.086 865.883 300.286 865.05 300.286 864.1ZM308.504 852.5V871H305.654V852.5H308.504ZM310.046 864.1C310.046 862.683 310.329 861.442 310.896 860.375C311.479 859.292 312.279 858.458 313.296 857.875C314.313 857.292 315.479 857 316.796 857C318.463 857 319.838 857.4 320.921 858.2C322.021 858.983 322.763 860.108 323.146 861.575H320.071C319.821 860.892 319.421 860.358 318.871 859.975C318.321 859.592 317.629 859.4 316.796 859.4C315.629 859.4 314.696 859.817 313.996 860.65C313.313 861.467 312.971 862.617 312.971 864.1C312.971 865.583 313.313 866.742 313.996 867.575C314.696 868.408 315.629 868.825 316.796 868.825C318.446 868.825 319.538 868.1 320.071 866.65H323.146C322.746 868.05 321.996 869.167 320.896 870C319.796 870.817 318.429 871.225 316.796 871.225C315.479 871.225 314.313 870.933 313.296 870.35C312.279 869.75 311.479 868.917 310.896 867.85C310.329 866.767 310.046 865.517 310.046 864.1ZM337.211 857.225V871H334.361V869.375C333.911 869.942 333.32 870.392 332.586 870.725C331.87 871.042 331.103 871.2 330.286 871.2C329.203 871.2 328.228 870.975 327.361 870.525C326.511 870.075 325.836 869.408 325.336 868.525C324.853 867.642 324.611 866.575 324.611 865.325V857.225H327.436V864.9C327.436 866.133 327.745 867.083 328.361 867.75C328.978 868.4 329.82 868.725 330.886 868.725C331.953 868.725 332.795 868.4 333.411 867.75C334.045 867.083 334.361 866.133 334.361 864.9V857.225H337.211ZM342.572 852.5V871H339.722V852.5H342.572ZM344.113 864.05C344.113 862.667 344.397 861.442 344.963 860.375C345.547 859.308 346.33 858.483 347.313 857.9C348.313 857.3 349.413 857 350.613 857C351.697 857 352.638 857.217 353.438 857.65C354.255 858.067 354.905 858.592 355.388 859.225V857.225H358.263V871H355.388V868.95C354.905 869.6 354.247 870.142 353.413 870.575C352.58 871.008 351.63 871.225 350.563 871.225C349.38 871.225 348.297 870.925 347.313 870.325C346.33 869.708 345.547 868.858 344.963 867.775C344.397 866.675 344.113 865.433 344.113 864.05ZM355.388 864.1C355.388 863.15 355.188 862.325 354.788 861.625C354.405 860.925 353.897 860.392 353.263 860.025C352.63 859.658 351.947 859.475 351.213 859.475C350.48 859.475 349.797 859.658 349.163 860.025C348.53 860.375 348.013 860.9 347.613 861.6C347.23 862.283 347.038 863.1 347.038 864.05C347.038 865 347.23 865.833 347.613 866.55C348.013 867.267 348.53 867.817 349.163 868.2C349.813 868.567 350.497 868.75 351.213 868.75C351.947 868.75 352.63 868.567 353.263 868.2C353.897 867.833 354.405 867.3 354.788 866.6C355.188 865.883 355.388 865.05 355.388 864.1ZM363.607 859.225C364.024 858.525 364.574 857.983 365.257 857.6C365.957 857.2 366.782 857 367.732 857V859.95H367.007C365.89 859.95 365.04 860.233 364.457 860.8C363.89 861.367 363.607 862.35 363.607 863.75V871H360.757V857.225H363.607V859.225Z" fill="white"/>
</g>
<defs>
<clipPath id="clip0_157_52">
<rect width="1980" height="1920" fill="white"/>
</clipPath>
</defs>
</svg>
