<?xml version="1.0" encoding="UTF-8"?>
<!DOCTYPE svg PUBLIC "-//W3C//DTD SVG 1.1//EN" "http://www.w3.org/Graphics/SVG/1.1/DTD/svg11.dtd">
<!-- Creator: CorelDRAW X7 -->
<svg xmlns="http://www.w3.org/2000/svg" xml:space="preserve" width="1336px" height="763px" version="1.1" style="shape-rendering:geometricPrecision; text-rendering:geometricPrecision; image-rendering:optimizeQuality; fill-rule:evenodd; clip-rule:evenodd"
viewBox="0 0 1336 763"
 xmlns:xlink="http://www.w3.org/1999/xlink">
 <defs>
  <style type="text/css">
   <![CDATA[
    .fil0 {fill:white}
   ]]>
  </style>
 </defs>
 <g id="Camada_x0020_1">
  <metadata id="CorelCorpID_0Corel-Layer"/>
  <path class="fil0" d="M749 591l-93 0c-53,0 -107,3 -141,-27 -34,-31 -32,-82 -32,-139 0,-39 -2,-139 4,-173 14,-89 95,-85 169,-85l77 0c54,0 109,-2 142,28 33,31 32,81 32,138l0 92c0,137 -20,166 -158,166zm-134 -470c-44,2 -74,2 -108,22 -26,14 -47,37 -59,70 -17,49 -14,187 -12,246 3,71 14,140 93,167 49,17 187,14 246,11 72,-3 138,-13 166,-92 17,-47 14,-189 12,-247 -2,-73 -16,-140 -93,-166 -48,-16 -187,-14 -245,-11z"/>
  <path class="fil0" d="M676 295c52,-12 93,25 102,64 13,53 -23,94 -63,104 -110,26 -152,-140 -39,-168zm151 99c10,-78 -49,-139 -116,-147 -79,-10 -140,48 -148,116 -10,78 48,140 115,148 80,10 140,-48 149,-117z"/>
  <path class="fil0" d="M822 269c12,3 15,3 25,-1 27,-10 21,-59 -15,-58 -42,1 -34,60 -10,59z"/>
 </g>
</svg>
