<svg width="1440" height="1025" viewBox="0 0 1440 1025" fill="none" xmlns="http://www.w3.org/2000/svg">
<g clip-path="url(#clip0_139_299)">
<rect width="1440" height="1024" transform="translate(0 0.577148)" fill="#131212"/>
<path d="M209.501 858.077C136.001 795.577 34.1676 800.077 -31.4991 815.577L-38.4991 818.077C-32.8324 831.41 -56.9991 881.077 -56.9991 923.077C-56.9991 975.577 -24.4991 995.577 -21.4991 1029.58C-18.4991 1063.58 -117.499 1066.58 -98.9991 1079.08C-80.4991 1091.58 -112.999 1165.08 -85.9994 1173.58C-58.9994 1182.08 29.001 1238.08 290.501 1118.58C296.686 1115.75 311.334 1051.08 318.501 1025.08C318.501 987.077 270.009 909.529 209.501 858.077Z" fill="#F51A2D"/>
<path d="M1192 176.577C1165.2 293.777 1356.83 383.744 1456 414.077L1559.5 366.077C1573.83 294.911 1603 149.177 1605 135.577C1607.5 118.577 1765 -209.923 1688.5 -327.923C1612 -445.923 1338.5 -421.923 1290.5 -363.923C1242.5 -305.923 1307 -89.9226 1319 -37.4226C1331 15.0774 1225.5 30.0773 1192 176.577Z" fill="#F51A2D"/>
</g>
<defs>
<clipPath id="clip0_139_299">
<rect width="1440" height="1024" fill="white" transform="translate(0 0.577148)"/>
</clipPath>
</defs>
</svg>
