<svg width="1440" height="1286" viewBox="0 0 1440 1286" fill="none" xmlns="http://www.w3.org/2000/svg">
<g clip-path="url(#clip0_139_221)">
<rect width="1440" height="1286" fill="#131212"/>
<path d="M1192 1462C1165.2 1579.2 1356.83 1669.17 1456 1699.5L1559.5 1651.5C1573.83 1580.33 1603 1434.6 1605 1421C1607.5 1404 1765 1075.5 1688.5 957.5C1612 839.5 1338.5 863.5 1290.5 921.5C1242.5 979.5 1307 1195.5 1319 1248C1331 1300.5 1225.5 1315.5 1192 1462Z" fill="#F51A2D"/>
<path d="M111.283 492.454C99.0728 612.057 -111.293 635.801 -214.949 632.722L-297.583 554.059C-288.331 482.055 -269.211 334.667 -266.743 321.144C-263.657 304.241 -307.463 -57.4216 -197.156 -144.648C-86.8476 -231.874 164.502 -121.413 191.361 -51.0806C218.22 19.2513 87.8433 203.148 59.6372 249.025C31.4311 294.902 126.545 342.949 111.283 492.454Z" fill="#F51A2D"/>
</g>
<defs>
<clipPath id="clip0_139_221">
<rect width="1440" height="1286" fill="white"/>
</clipPath>
</defs>
</svg>
