<svg width="43" height="25" viewBox="0 0 43 25" fill="none" xmlns="http://www.w3.org/2000/svg">
<path d="M29.8386 15.488L31.8778 15.5188C31.875 14.9755 31.6599 14.4548 31.2785 14.0678C30.8972 13.6808 30.3796 13.4582 29.8364 13.4474L29.8413 15.4877L29.8386 15.488ZM29.8318 9.65397L29.8364 11.6915C30.9617 11.709 31.8727 10.8105 31.8686 9.68782L29.8318 9.65397ZM13.0107 15.2227L13.0061 13.1852C12.7399 13.1799 12.4753 13.2281 12.2279 13.3267C11.9805 13.4254 11.7554 13.5726 11.5658 13.7596C11.3762 13.9466 11.2259 14.1697 11.1239 14.4156C11.0218 14.6616 10.97 14.9256 10.9716 15.1919L13.0107 15.2227ZM12.9985 9.3893L10.9593 9.35848C10.963 9.902 11.1786 10.4226 11.5604 10.8095C11.9423 11.1963 12.46 11.4188 13.0034 11.4295L12.9985 9.3893ZM38.7033 8.82075L38.7196 16.5986L42.7956 16.6633L42.782 8.88509L38.7033 8.82075ZM35.3072 20.3393C34.6924 20.3391 34.0778 20.3189 33.4644 20.2788C33.2792 20.2753 33.0958 20.2425 32.9209 20.1815L31.2763 23.8851C31.9148 24.1762 32.5557 24.2862 33.1761 24.3413C33.7743 24.3936 34.499 24.4056 35.314 24.4174L35.3072 20.3393ZM27.8022 15.4569C27.8027 16.3498 27.8044 17.3194 27.8424 18.1612C27.8782 18.8964 27.9446 19.8799 28.2256 20.604L32.0236 19.1908C32.0464 19.2428 32.0178 19.1888 31.9862 18.9324C31.9583 18.7058 31.9325 18.4076 31.9153 18.0454C31.8794 17.3102 31.8816 16.4388 31.8778 15.5188L27.7991 15.4545L27.8022 15.4569ZM32.9209 20.1815C32.5045 19.9803 32.1827 19.625 32.0236 19.1908L28.2256 20.604C28.7809 22.0423 29.8651 23.2372 31.2763 23.8851L32.9209 20.1815ZM38.7196 16.5986C38.7194 17.53 38.7197 18.1327 38.6919 18.5963C38.6914 18.8329 38.6557 19.0681 38.5862 19.2942L42.3909 20.825C42.6337 20.1951 42.7222 19.5569 42.7614 18.9193C42.7999 18.2982 42.7971 17.5424 42.7956 16.6633L38.7196 16.5986ZM35.314 24.4174C36.1321 24.4317 36.8541 24.444 37.4551 24.4083C38.0726 24.3733 38.7132 24.2806 39.351 24.0103L37.6939 20.2561C37.5182 20.3119 37.3348 20.3391 37.1505 20.3368C36.7343 20.3607 36.1857 20.3543 35.3072 20.3393L35.3171 24.4198L35.314 24.4174ZM38.5859 19.2915C38.5086 19.5039 38.3897 19.6987 38.2361 19.8644C38.0824 20.0301 37.8999 20.1631 37.6939 20.2561L39.351 24.0103C40.044 23.7087 40.6697 23.2715 41.1913 22.7246C41.7129 22.1776 42.1198 21.5319 42.3882 20.8253L38.5835 19.2945L38.5859 19.2915ZM35.276 4.97249C36.1541 4.98479 36.7034 4.99652 37.1188 5.03298C37.5147 5.06637 37.6333 5.1175 37.6623 5.13036L39.3069 1.42672C38.7057 1.16578 38.0638 1.01132 37.4097 0.970224C36.8085 0.915571 36.0869 0.905899 35.2691 0.894377L35.2787 4.97215L35.276 4.97249ZM42.782 8.88509C42.7801 8.00324 42.7801 7.24717 42.739 6.62492C42.7114 5.97003 42.5828 5.32335 42.3575 4.7078L38.5596 6.121C38.6294 6.34748 38.6658 6.58293 38.6677 6.81992C38.6975 7.28467 38.7006 7.88696 38.7033 8.82075L42.782 8.88509ZM37.6623 5.13036C38.078 5.33097 38.3999 5.68787 38.5596 6.121L42.3575 4.7078C41.8063 3.25881 40.712 2.08178 39.3069 1.42672L37.6623 5.13036ZM35.2691 0.894377C34.5565 0.871899 33.8432 0.874834 33.1308 0.903177C32.4803 0.923326 31.8358 1.0584 31.2322 1.30155L32.8893 5.05572C33.0657 4.99942 33.2501 4.97206 33.4354 4.97472C33.8515 4.95082 34.4002 4.95715 35.276 4.97249L35.2691 0.894377ZM31.8686 9.68782C31.8651 8.77055 31.8666 7.89376 31.8942 7.16169C31.9096 6.79818 31.9331 6.49944 31.9605 6.27692C31.9919 6.02101 32.0207 5.96542 32 6.02002L28.1977 4.48617C27.9186 5.19994 27.8511 6.18622 27.8206 6.91593C27.7874 7.75826 27.7864 8.72813 27.7896 9.62078L31.8686 9.68782ZM31.2322 1.30155C30.5391 1.60303 29.9133 2.04012 29.3917 2.5871C28.8701 3.13408 28.4659 3.77956 28.1977 4.48617L32 6.02002C32.0774 5.80917 32.1955 5.61311 32.3483 5.44849C32.5011 5.28387 32.6851 5.15128 32.8896 5.05842L31.2322 1.30155ZM4.13414 16.0593L4.12053 8.28108L0.0418731 8.21674L0.0581773 15.9946L4.13414 16.0593ZM7.56388 19.9045C6.94908 19.9061 6.33441 19.8859 5.72103 19.844C5.53588 19.8405 5.35245 19.8076 5.17759 19.7466L3.53027 23.4506C4.16882 23.7417 4.81543 23.8538 5.43313 23.9091C6.03129 23.9614 6.75564 23.9708 7.57069 23.9826L7.56388 19.9045ZM0.0581773 15.9946C0.0570025 16.8741 0.0597495 17.6298 0.100833 18.2521C0.141214 18.8908 0.231164 19.5317 0.479616 20.1695L4.27754 18.7563C4.20779 18.5298 4.17139 18.2944 4.16949 18.0574C4.13993 17.5954 4.13658 16.9904 4.13414 16.0593L0.0581773 15.9946ZM5.17489 19.747C4.75945 19.5451 4.43867 19.1898 4.28024 18.756L0.482314 20.1692C1.03762 21.6074 2.11907 22.8027 3.53027 23.4506L5.17489 19.747ZM10.9716 15.1919C10.9754 16.1118 10.9736 16.9859 10.943 17.7156C10.9326 18.0113 10.9105 18.3065 10.8767 18.6004C10.8452 18.8563 10.8192 18.9116 10.8402 18.8597L14.6448 20.3905C14.9212 19.677 14.9863 18.6938 15.0193 17.9611C15.0528 17.1214 15.0507 16.1492 15.0502 15.2562L10.9716 15.1919ZM7.57069 23.9826C8.38879 23.9968 9.11077 24.0092 9.70907 23.9738C10.3293 23.9385 10.9702 23.8485 11.605 23.5758L9.94822 19.8243C9.77258 19.8802 9.5891 19.9074 9.40481 19.905C8.79056 19.9257 8.17581 19.9265 7.56151 19.9075L7.57136 23.988L7.57069 23.9826ZM10.8402 18.8597C10.7629 19.0713 10.6442 19.2654 10.4909 19.4305C10.3377 19.5957 10.1531 19.7287 9.94789 19.8216L11.605 23.5758C12.2985 23.2744 12.9247 22.8374 13.4468 22.2903C13.9689 21.7433 14.3762 21.0973 14.6448 20.3905L10.8402 18.8597ZM7.5323 4.53495C8.41075 4.54995 8.95974 4.55899 9.37515 4.59545C9.7683 4.62917 9.88691 4.6803 9.91859 4.69283L11.5615 0.997613C10.9604 0.735708 10.3184 0.580328 9.66404 0.538419C9.06589 0.486131 8.34154 0.476793 7.52345 0.462572L7.5333 4.54305L7.5323 4.53495ZM15.0373 9.41742C15.0372 8.52714 15.0351 7.55491 14.9948 6.71616C14.9616 5.98061 14.8922 4.99477 14.6112 4.27059L10.8136 5.68649C10.7931 5.63149 10.819 5.68583 10.8533 5.94184C10.8815 6.17121 10.9043 6.46699 10.9219 6.83191C10.9516 7.67285 10.9643 8.51702 10.9593 9.35848L15.0373 9.41742ZM9.91959 4.70092C10.335 4.90273 10.6558 5.25805 10.8142 5.69189L14.6118 4.27599C14.0599 2.82823 12.9658 1.65234 11.5615 0.997613L9.91959 4.70092ZM7.52312 0.459873C6.70536 0.44835 5.98338 0.435981 5.38474 0.468674C4.73428 0.488823 4.09248 0.623569 3.48884 0.866716L5.14626 4.62359C5.32164 4.56684 5.50501 4.53869 5.68934 4.54021C6.10552 4.51631 6.65418 4.52265 7.5323 4.53495L7.52312 0.459873ZM4.1202 8.27838C4.11776 7.34729 4.11744 6.74467 4.14792 6.28069C4.14892 6.04501 4.18466 5.81077 4.25399 5.58551L0.448986 4.052C0.22475 4.66275 0.0990042 5.30785 0.0757695 5.95805C0.0372693 6.57915 0.040017 7.33489 0.0418731 8.21674L4.1202 8.27838ZM3.48917 0.869414C2.79564 1.17076 2.16941 1.60782 1.64735 2.15486C1.12529 2.7019 0.717619 3.34516 0.448986 4.052L4.25399 5.58551C4.33127 5.37389 4.45033 5.18252 4.60354 5.01734C4.75675 4.85217 4.94137 4.71923 5.14659 4.62628L3.48917 0.869414ZM13.0034 11.4295L29.8313 11.6949L29.8245 7.61676L12.9943 7.35446L13.0041 11.4349L13.0034 11.4295ZM29.8337 13.4478L13.0061 13.1852L13.0133 17.266L29.8405 17.5259L29.831 13.4481L29.8337 13.4478Z" fill="white"/>
</svg>
