<?xml version="1.0" encoding="UTF-8"?>
<!DOCTYPE svg PUBLIC "-//W3C//DTD SVG 1.1//EN" "http://www.w3.org/Graphics/SVG/1.1/DTD/svg11.dtd">
<!-- Creator: CorelDRAW X7 -->
<svg xmlns="http://www.w3.org/2000/svg" xml:space="preserve" width="1336px" height="763px" version="1.1" style="shape-rendering:geometricPrecision; text-rendering:geometricPrecision; image-rendering:optimizeQuality; fill-rule:evenodd; clip-rule:evenodd"
viewBox="0 0 1336 763"
 xmlns:xlink="http://www.w3.org/1999/xlink">
 <defs>
  <style type="text/css">
   <![CDATA[
    .fil0 {fill:#FEFEFE}
    .fil1 {fill:#FEFEFE}
   ]]>
  </style>
 </defs>
 <g id="Camada_x0020_1">
  <metadata id="CorelCorpID_0Corel-Layer"/>
  <path class="fil0" d="M2849 541l227 0 0 -549 -187 0c24,8 56,-5 59,15l0 75c-34,6 -72,-5 -89,20 -14,21 -11,70 -10,99l95 1 -15 98 -79 0 -1 241z"/>
  <path class="fil1" d="M611 312l151 94c-8,12 -137,92 -153,94l2 -188zm370 162c5,-58 7,-199 -22,-240 -35,-50 -145,-41 -221,-43 -87,-2 -175,-1 -260,4 -102,7 -116,42 -122,144 -15,290 17,284 247,286 86,0 174,1 259,-5 106,-9 111,-45 119,-146z"/>
 </g>
</svg>
